<svg width="12" height="13" viewBox="0 0 12 13" fill="none" xmlns="http://www.w3.org/2000/svg">
<path d="M10.9081 4.16904H8.56014V1.81804C8.56093 1.70528 8.53949 1.59347 8.49703 1.48901C8.45458 1.38454 8.39195 1.28947 8.31273 1.20923C8.23351 1.12898 8.13925 1.06514 8.03534 1.02136C7.93143 0.97757 7.8199 0.954695 7.70714 0.954041H4.31414C4.20147 0.954041 4.0899 0.976232 3.9858 1.01935C3.8817 1.06247 3.78712 1.12567 3.70744 1.20534C3.62777 1.28501 3.56457 1.3796 3.52145 1.4837C3.47833 1.5878 3.45614 1.69937 3.45614 1.81204V4.16304H1.10814C0.995382 4.16225 0.883574 4.18369 0.779109 4.22615C0.674644 4.2686 0.579571 4.33123 0.499328 4.41045C0.419084 4.48967 0.355244 4.58393 0.311457 4.68784C0.26767 4.79176 0.244795 4.90328 0.244141 5.01604V8.40904C0.244141 8.6366 0.334537 8.85483 0.495443 9.01574C0.65635 9.17664 0.874585 9.26704 1.10214 9.26704H3.45314V11.612C3.45235 11.7248 3.47379 11.8366 3.51625 11.9411C3.5587 12.0455 3.62133 12.1406 3.70055 12.2209C3.77977 12.3011 3.87403 12.3649 3.97794 12.4087C4.08186 12.4525 4.19338 12.4754 4.30614 12.476H7.69414C7.9217 12.476 8.13993 12.3856 8.30084 12.2247C8.46174 12.0638 8.55214 11.8456 8.55214 11.618V9.26704H10.9081C11.0209 9.26783 11.1327 9.24639 11.2372 9.20393C11.3416 9.16148 11.4367 9.09885 11.517 9.01963C11.5972 8.94041 11.661 8.84615 11.7048 8.74224C11.7486 8.63832 11.7715 8.5268 11.7721 8.41404V5.02704C11.7721 4.91386 11.7498 4.8018 11.7063 4.69731C11.6628 4.59282 11.599 4.49796 11.5187 4.41821C11.4384 4.33846 11.3431 4.27539 11.2383 4.23262C11.1335 4.18986 11.0213 4.16825 10.9081 4.16904ZM10.6141 8.11604H7.98414C7.83138 8.11604 7.68487 8.17673 7.57685 8.28475C7.46883 8.39277 7.40814 8.53927 7.40814 8.69204V11.325H4.60814V8.69104C4.60814 8.53828 4.54745 8.39177 4.43943 8.28375C4.33141 8.17573 4.18491 8.11504 4.03214 8.11504H1.39914V5.32104H4.03214C4.18491 5.32104 4.33141 5.26035 4.43943 5.15233C4.54745 5.04431 4.60814 4.8978 4.60814 4.74504V2.10604H7.40214V4.73904C7.40214 4.89181 7.46283 5.03831 7.57085 5.14633C7.67887 5.25435 7.82538 5.31504 7.97814 5.31504H10.6171L10.6141 8.11604Z" fill="#38A3D1"/>
</svg>
