<svg width="20" height="28" viewBox="0 0 20 28" fill="none" xmlns="http://www.w3.org/2000/svg">
<path d="M9.84304 7.1173e-07C8.09017 0.000527429 6.36921 0.468996 4.85792 1.35702C3.34663 2.24504 2.09982 3.52043 1.24624 5.05143C0.392669 6.58244 -0.0367086 8.31357 0.00245887 10.066C0.0416264 11.8184 0.547919 13.5287 1.46904 15.02L9.28304 27.612C9.35685 27.7311 9.45995 27.8293 9.58249 27.8972C9.70503 27.9651 9.84294 28.0005 9.98304 28H9.99004C10.1313 27.9993 10.27 27.962 10.3926 27.892C10.5152 27.8219 10.6177 27.7213 10.69 27.6L18.305 14.886C19.1958 13.3911 19.6745 11.6869 19.6923 9.9468C19.7101 8.20674 19.2664 6.49303 18.4065 4.98022C17.5465 3.46741 16.301 2.20954 14.7967 1.33471C13.2924 0.459876 11.5832 -0.000660843 9.84304 7.1173e-07V7.1173e-07ZM16.89 14.045L9.96704 25.6L2.86304 14.156C2.09619 12.9173 1.67281 11.4968 1.63636 10.0404C1.59991 8.58402 1.9517 7.14415 2.65562 5.86863C3.35954 4.59312 4.39022 3.52791 5.64187 2.78237C6.89351 2.03683 8.32101 1.63781 9.77783 1.62628C11.2346 1.61475 12.6683 1.99113 13.9316 2.71677C15.1949 3.44241 16.2423 4.49117 16.9663 5.75539C17.6903 7.01961 18.0648 8.45373 18.0514 9.91053C18.038 11.3673 17.6372 12.7943 16.89 14.045Z" fill="#38A3D1"/>
</svg>
