<svg xmlns="http://www.w3.org/2000/svg" width="75" height="75" viewBox="0 0 376 219.375">
  <g id="logo" transform="translate(-285.839 -673.731)">
    <g id="Group_49373" data-name="Group 49373">
      <path id="Path_28296" data-name="Path 28296" d="M522.921,690.451a58.754,58.754,0,1,0-81.63,84.523,14.033,14.033,0,1,0,5.435-6.669,50.176,50.176,0,1,1,44.243,13.551,4.1,4.1,0,0,1-3.374-.88,3.962,3.962,0,0,1-1.444-3.084v-10.9a34.844,34.844,0,0,0,29.829-27.711,4.1,4.1,0,0,0-4.018-4.891h-9.99a4.1,4.1,0,1,0,0,8.191h4.5a26.6,26.6,0,0,1-49.125.187H461.8a4.1,4.1,0,1,0,0-8.192h-9.99a4.095,4.095,0,0,0-4.012,4.916,34.891,34.891,0,0,0,29.786,27.5v10.9a12.612,12.612,0,0,0,12.62,12.6,12.812,12.812,0,0,0,2.3-.209,58.763,58.763,0,0,0,30.411-99.828Zm-68.594,83.786a5.81,5.81,0,1,1-5.811,5.811A5.818,5.818,0,0,1,454.327,774.237Z" fill="#53c6f3"/>
    </g>
    <text id="Heallo_Care" data-name="Heallo Care" transform="translate(285.839 875.106)" fill="#003e70" font-size="71.009" font-family="SegoeUI, Segoe UI" letter-spacing="0.02em"><tspan x="0" y="0">Heallo Care</tspan></text>
  </g>
</svg>