<svg width="28" height="29" viewBox="0 0 28 29" fill="none" xmlns="http://www.w3.org/2000/svg">
<path d="M14 6.45336C14.3497 6.45336 14.6333 6.73692 14.6333 7.08666V8.01887C16.3094 8.31897 17.5858 9.78647 17.5858 11.5475C17.5858 11.8972 17.3022 12.1808 16.9525 12.1808C16.6028 12.1808 16.3192 11.8972 16.3192 11.5475C16.3192 10.2687 15.2788 9.2283 14 9.2283C12.7212 9.2283 11.6808 10.2687 11.6808 11.5475C11.6808 12.8263 12.7212 13.8667 14 13.8667C15.9772 13.8667 17.5858 15.4753 17.5858 17.4525C17.5858 19.2135 16.3093 20.6811 14.6333 20.9812V21.9134C14.6333 22.2632 14.3497 22.5467 14 22.5467C13.6503 22.5467 13.3667 22.2632 13.3667 21.9134V20.9812C11.6907 20.6811 10.4142 19.2136 10.4142 17.4525C10.4142 17.1028 10.6978 16.8192 11.0475 16.8192C11.3972 16.8192 11.6808 17.1028 11.6808 17.4525C11.6808 18.7314 12.7212 19.7717 14 19.7717C15.2789 19.7717 16.3192 18.7313 16.3192 17.4525C16.3192 16.1737 15.2788 15.1333 14 15.1333C12.0228 15.1333 10.4142 13.5247 10.4142 11.5475C10.4142 9.78647 11.6907 8.31897 13.3667 8.01887V7.08658C13.3667 6.73684 13.6503 6.45336 14 6.45336ZM14 0.5C21.7196 0.5 28 6.78038 28 14.5001C28 22.2198 21.7196 28.5002 14 28.5002C6.28038 28.5002 0 22.2198 0 14.5001C0 6.78038 6.28038 0.5 14 0.5ZM14 1.76659C6.97874 1.76659 1.26659 7.47882 1.26659 14.5001C1.26659 21.5213 6.97874 27.2336 14 27.2336C21.0213 27.2336 26.7334 21.5213 26.7334 14.5001C26.7334 7.47882 21.0213 1.76659 14 1.76659Z" fill="#00ACE2"/>
</svg>
