<svg width="23" height="29" viewBox="0 0 23 29" fill="none" xmlns="http://www.w3.org/2000/svg">
<path d="M19.762 4.188C19.762 4.33732 19.7177 4.4833 19.6348 4.60746C19.5518 4.73162 19.4339 4.82838 19.2959 4.88553C19.158 4.94267 19.0062 4.95762 18.8597 4.92849C18.7133 4.89936 18.5787 4.82745 18.4731 4.72187C18.3675 4.61628 18.2956 4.48175 18.2665 4.33529C18.2374 4.18884 18.2523 4.03703 18.3095 3.89907C18.3666 3.76112 18.4634 3.6432 18.5875 3.56024C18.7117 3.47728 18.8577 3.433 19.007 3.433C19.2072 3.433 19.3993 3.51254 19.5409 3.65413C19.6825 3.79572 19.762 3.98776 19.762 4.188ZM22.695 4.188C22.6943 5.04674 22.3943 5.87839 21.8468 6.53995C21.2993 7.20152 20.5384 7.65167 19.695 7.813V21.213C19.695 23.1466 18.9269 25.0009 17.5597 26.3682C16.1924 27.7354 14.3381 28.5035 12.4045 28.5035C10.4709 28.5035 8.61657 27.7354 7.24934 26.3682C5.8821 25.0009 5.114 23.1466 5.114 21.213V17.736C4.04839 17.5712 3.07677 17.031 2.37446 16.2128C1.67215 15.3946 1.2854 14.3523 1.284 13.274V5.493C0.907535 5.35315 0.5828 5.10159 0.353313 4.77201C0.123827 4.44244 0.00055073 4.0506 0 3.649V2.467C0 1.94532 0.207234 1.44501 0.576118 1.07612C0.945003 0.707237 1.44532 0.5 1.967 0.5C2.48868 0.5 2.98899 0.707237 3.35788 1.07612C3.72676 1.44501 3.934 1.94532 3.934 2.467V3.648C3.93345 4.0496 3.81017 4.44144 3.58068 4.77101C3.3512 5.10059 3.02646 5.35215 2.65 5.492V13.273C2.65 13.6863 2.7314 14.0955 2.88955 14.4773C3.0477 14.8591 3.27951 15.206 3.57174 15.4983C3.86396 15.7905 4.21088 16.0223 4.59269 16.1804C4.9745 16.3386 5.38373 16.42 5.797 16.42C6.21027 16.42 6.61949 16.3386 7.0013 16.1804C7.38312 16.0223 7.73004 15.7905 8.02226 15.4983C8.31449 15.206 8.5463 14.8591 8.70445 14.4773C8.8626 14.0955 8.944 13.6863 8.944 13.273V5.493C8.56753 5.35315 8.2428 5.10159 8.01331 4.77201C7.78383 4.44244 7.66055 4.0506 7.66 3.649V2.467C7.66 1.94532 7.86723 1.44501 8.23612 1.07612C8.605 0.707237 9.10532 0.5 9.627 0.5C10.1487 0.5 10.649 0.707237 11.0179 1.07612C11.3868 1.44501 11.594 1.94532 11.594 2.467V3.648C11.5932 4.05048 11.4691 4.44307 11.2385 4.77292C11.0079 5.10277 10.6817 5.35407 10.304 5.493V13.274C10.3026 14.3523 9.91585 15.3946 9.21354 16.2128C8.51123 17.031 7.53961 17.5712 6.474 17.736V21.21C6.474 22.7811 7.09813 24.2879 8.2091 25.3989C9.32006 26.5099 10.8269 27.134 12.398 27.134C13.9691 27.134 15.4759 26.5099 16.5869 25.3989C17.6979 24.2879 18.322 22.7811 18.322 21.21V7.813C17.634 7.68333 16.997 7.36049 16.4857 6.88221C15.9744 6.40393 15.6097 5.78997 15.4344 5.11212C15.2592 4.43426 15.2805 3.72051 15.4958 3.0543C15.7112 2.3881 16.1118 1.79697 16.6507 1.35001C17.1896 0.90306 17.8447 0.618753 18.5392 0.530327C19.2338 0.441901 19.9391 0.55301 20.5729 0.850667C21.2066 1.14832 21.7425 1.62023 22.118 2.21121C22.4934 2.8022 22.6928 3.48784 22.693 4.188H22.695ZM9.022 3.648C9.022 3.80713 9.08521 3.95974 9.19773 4.07226C9.31026 4.18479 9.46287 4.248 9.622 4.248C9.78113 4.248 9.93374 4.18479 10.0463 4.07226C10.1588 3.95974 10.222 3.80713 10.222 3.648V2.467C10.222 2.30787 10.1588 2.15526 10.0463 2.04274C9.93374 1.93021 9.78113 1.867 9.622 1.867C9.46287 1.867 9.31026 1.93021 9.19773 2.04274C9.08521 2.15526 9.022 2.30787 9.022 2.467V3.648ZM2.562 2.466C2.562 2.30687 2.49878 2.15426 2.38626 2.04174C2.27374 1.92921 2.12113 1.866 1.962 1.866C1.80287 1.866 1.65026 1.92921 1.53773 2.04174C1.42521 2.15426 1.362 2.30687 1.362 2.466V3.648C1.362 3.80713 1.42521 3.95974 1.53773 4.07226C1.65026 4.18479 1.80287 4.248 1.962 4.248C2.12113 4.248 2.27374 4.18479 2.38626 4.07226C2.49878 3.95974 2.562 3.80713 2.562 3.648V2.466ZM21.328 4.188C21.328 3.72918 21.1921 3.28064 20.9374 2.89901C20.6826 2.51738 20.3206 2.21976 19.8969 2.04373C19.4732 1.86769 19.0068 1.82112 18.5567 1.90991C18.1065 1.9987 17.6928 2.21886 17.3676 2.5426C17.0425 2.86633 16.8206 3.27914 16.7298 3.7289C16.6391 4.17866 16.6837 4.64522 16.8579 5.06968C17.0321 5.49414 17.3282 5.85748 17.7087 6.11382C18.0892 6.37016 18.5372 6.50802 18.996 6.51H19.017C19.6308 6.50657 20.2182 6.26048 20.6512 5.82545C21.0842 5.39042 21.3275 4.80177 21.328 4.188Z" fill="#38A3D1"/>
</svg>
