<svg width="29" height="26" viewBox="0 0 29 26" fill="none" xmlns="http://www.w3.org/2000/svg">
<path d="M24.0332 4.64406H19.2852V2.61606C19.2995 2.17156 19.1366 1.7396 18.8324 1.41517C18.5283 1.09074 18.1077 0.900413 17.6632 0.886057C17.6159 0.886057 17.5689 0.886057 17.5222 0.886057H10.4942C10.2741 0.874601 10.054 0.906623 9.84631 0.980294C9.63864 1.05396 9.44753 1.16784 9.28389 1.31541C9.12025 1.46298 8.9873 1.64135 8.89264 1.84033C8.79797 2.03931 8.74345 2.255 8.73219 2.47506C8.73219 2.52239 8.73219 2.56939 8.73219 2.61606V4.63306H3.98319C3.45207 4.59784 2.91956 4.67652 2.42133 4.86383C1.92309 5.05113 1.47063 5.34274 1.09425 5.71912C0.71787 6.0955 0.426261 6.54796 0.238955 7.0462C0.0516485 7.54443 -0.0270308 8.07694 0.00818666 8.60806V21.1391C-0.0270308 21.6702 0.0516485 22.2027 0.238955 22.7009C0.426261 23.1992 0.71787 23.6516 1.09425 24.028C1.47063 24.4044 1.92309 24.696 2.42133 24.8833C2.91956 25.0706 3.45207 25.1493 3.98319 25.1141H24.0332C24.5643 25.1493 25.0968 25.0706 25.595 24.8833C26.0933 24.696 26.5457 24.4044 26.9221 24.028C27.2985 23.6516 27.5901 23.1992 27.7774 22.7009C27.9647 22.2027 28.0434 21.6702 28.0082 21.1391V8.62006C28.0439 8.08878 27.9655 7.55602 27.7784 7.05751C27.5913 6.559 27.2997 6.10628 26.9233 5.72971C26.5468 5.35315 26.0941 5.06146 25.5957 4.87421C25.0972 4.68697 24.5645 4.60849 24.0332 4.64406ZM9.88319 2.61606C9.87025 2.5322 9.87726 2.44648 9.90365 2.36584C9.93003 2.2852 9.97504 2.21191 10.035 2.15191C10.095 2.09191 10.1683 2.0469 10.249 2.02052C10.3296 1.99413 10.4153 1.98712 10.4992 2.00006H17.5222C18.1382 2.00006 18.1382 2.44406 18.1382 2.61606V4.63306H9.88319V2.61606ZM26.8562 21.1391C26.8924 21.5188 26.8442 21.9018 26.7152 22.2608C26.5861 22.6197 26.3793 22.9457 26.1096 23.2154C25.8398 23.4852 25.5138 23.692 25.1549 23.821C24.7959 23.9501 24.4129 23.9983 24.0332 23.9621H3.98319C3.60354 23.9979 3.22066 23.9495 2.86188 23.8203C2.5031 23.6911 2.17725 23.4843 1.90761 23.2146C1.63796 22.945 1.43116 22.6191 1.30196 22.2604C1.17277 21.9016 1.12435 21.5187 1.16019 21.1391V8.62006C1.12446 8.24057 1.17297 7.85787 1.30225 7.49929C1.43153 7.14072 1.63839 6.81511 1.90806 6.54573C2.17773 6.27635 2.50356 6.06983 2.86227 5.94093C3.22098 5.81203 3.60373 5.76393 3.98319 5.80006H24.0332C24.4126 5.76429 24.7952 5.81265 25.1537 5.94168C25.5122 6.0707 25.8379 6.27723 26.1075 6.54653C26.3771 6.81584 26.584 7.14129 26.7134 7.4997C26.8428 7.85811 26.8915 8.24065 26.8562 8.62006V21.1391Z" fill="#38A3D1"/>
</svg>
